<svg xmlns="http://www.w3.org/2000/svg" width="720" height="316">
<style>.t{font:12px -apple-system,BlinkMacSystemFont,Segoe UI,Roboto,sans-serif;dominant-baseline:middle}.s{font:11px -apple-system,BlinkMacSystemFont,Segoe UI,Roboto,sans-serif;fill:#555}</style>
<text x="140" y="20" class="t">Active languages (last 30 days)</text>
<line x1="140.0" y1="36" x2="140.0" y2="296" stroke="#eee" />
<text x="140.0" y="32" class="s" text-anchor="middle">0%</text>
<line x1="279.0" y1="36" x2="279.0" y2="296" stroke="#eee" />
<text x="279.0" y="32" class="s" text-anchor="middle">25%</text>
<line x1="418.0" y1="36" x2="418.0" y2="296" stroke="#eee" />
<text x="418.0" y="32" class="s" text-anchor="middle">50%</text>
<line x1="557.0" y1="36" x2="557.0" y2="296" stroke="#eee" />
<text x="557.0" y="32" class="s" text-anchor="middle">75%</text>
<line x1="696.0" y1="36" x2="696.0" y2="296" stroke="#eee" />
<text x="696.0" y="32" class="s" text-anchor="middle">100%</text>
<text x="132" y="46.0" class="t" text-anchor="end">Go</text>
<rect x="140" y="39.0" width="170.0" height="14" rx="3" ry="3" fill="hsl(267,60%,50%)" stroke="#ddd" />
<text x="306.0" y="46.0" class="t" text-anchor="end" fill="#fff">31%</text>
<text x="132" y="76.0" class="t" text-anchor="end">Python</text>
<rect x="140" y="69.0" width="145.6" height="14" rx="3" ry="3" fill="hsl(134,60%,50%)" stroke="#ddd" />
<text x="281.6" y="76.0" class="t" text-anchor="end" fill="#fff">26%</text>
<text x="132" y="106.0" class="t" text-anchor="end">TypeScript</text>
<rect x="140" y="99.0" width="145.3" height="14" rx="3" ry="3" fill="hsl(80,60%,50%)" stroke="#ddd" />
<text x="281.3" y="106.0" class="t" text-anchor="end" fill="#fff">26%</text>
<text x="132" y="136.0" class="t" text-anchor="end">Markdown</text>
<rect x="140" y="129.0" width="36.2" height="14" rx="3" ry="3" fill="hsl(190,60%,50%)" stroke="#ddd" />
<text x="172.2" y="136.0" class="t" text-anchor="end" fill="#fff">7%</text>
<text x="132" y="166.0" class="t" text-anchor="end">JSON</text>
<rect x="140" y="159.0" width="19.5" height="14" rx="3" ry="3" fill="hsl(74,60%,50%)" stroke="#ddd" />
<text x="165.5" y="166.0" class="t" text-anchor="start">3.5%</text>
<text x="132" y="196.0" class="t" text-anchor="end">YAML</text>
<rect x="140" y="189.0" width="10.9" height="14" rx="3" ry="3" fill="hsl(308,60%,50%)" stroke="#ddd" />
<text x="156.9" y="196.0" class="t" text-anchor="start">2.0%</text>
<text x="132" y="226.0" class="t" text-anchor="end">CMake</text>
<rect x="140" y="219.0" width="9.2" height="14" rx="3" ry="3" fill="hsl(2,60%,50%)" stroke="#ddd" />
<text x="155.2" y="226.0" class="t" text-anchor="start">1.7%</text>
<text x="132" y="256.0" class="t" text-anchor="end">CSS</text>
<rect x="140" y="249.0" width="7.1" height="14" rx="3" ry="3" fill="hsl(358,60%,50%)" stroke="#ddd" />
<text x="153.1" y="256.0" class="t" text-anchor="start">1.3%</text>
<text x="132" y="286.0" class="t" text-anchor="end">Other</text>
<rect x="140" y="279.0" width="12.0" height="14" rx="3" ry="3" fill="hsl(186,60%,50%)" stroke="#ddd" />
<text x="158.0" y="286.0" class="t" text-anchor="start">2.2%</text>
</svg>