<svg xmlns="http://www.w3.org/2000/svg" width="720" height="316">
<style>.t{font:12px -apple-system,BlinkMacSystemFont,Segoe UI,Roboto,sans-serif;dominant-baseline:middle;fill:#24292f}.s{font:11px -apple-system,BlinkMacSystemFont,Segoe UI,Roboto,sans-serif;fill:#6b7280}</style>
<rect x="0" y="0" width="720" height="316" fill="#ffffff" />
<text x="140" y="20" class="t">Active languages (last 30 days)</text>
<line x1="140.0" y1="36" x2="140.0" y2="296" stroke="#e5e7eb" />
<text x="140.0" y="32" class="s" text-anchor="middle">0%</text>
<line x1="279.0" y1="36" x2="279.0" y2="296" stroke="#e5e7eb" />
<text x="279.0" y="32" class="s" text-anchor="middle">25%</text>
<line x1="418.0" y1="36" x2="418.0" y2="296" stroke="#e5e7eb" />
<text x="418.0" y="32" class="s" text-anchor="middle">50%</text>
<line x1="557.0" y1="36" x2="557.0" y2="296" stroke="#e5e7eb" />
<text x="557.0" y="32" class="s" text-anchor="middle">75%</text>
<line x1="696.0" y1="36" x2="696.0" y2="296" stroke="#e5e7eb" />
<text x="696.0" y="32" class="s" text-anchor="middle">100%</text>
<text x="132" y="46.0" class="t" text-anchor="end">C++</text>
<rect x="140" y="39.0" width="191.6" height="14" rx="3" ry="3" fill="hsl(115,60%,50%)" stroke="#ddd" />
<text x="327.6" y="46.0" class="t" text-anchor="end" fill="#fff">34%</text>
<text x="132" y="76.0" class="t" text-anchor="end">TypeScript</text>
<rect x="140" y="69.0" width="149.1" height="14" rx="3" ry="3" fill="hsl(80,60%,50%)" stroke="#ddd" />
<text x="285.1" y="76.0" class="t" text-anchor="end" fill="#fff">27%</text>
<text x="132" y="106.0" class="t" text-anchor="end">JSON</text>
<rect x="140" y="99.0" width="88.5" height="14" rx="3" ry="3" fill="hsl(74,60%,50%)" stroke="#ddd" />
<text x="224.5" y="106.0" class="t" text-anchor="end" fill="#fff">16%</text>
<text x="132" y="136.0" class="t" text-anchor="end">Markdown</text>
<rect x="140" y="129.0" width="57.8" height="14" rx="3" ry="3" fill="hsl(190,60%,50%)" stroke="#ddd" />
<text x="193.8" y="136.0" class="t" text-anchor="end" fill="#fff">10%</text>
<text x="132" y="166.0" class="t" text-anchor="end">SourcePawn</text>
<rect x="140" y="159.0" width="27.8" height="14" rx="3" ry="3" fill="hsl(174,60%,50%)" stroke="#ddd" />
<text x="173.8" y="166.0" class="t" text-anchor="start">5%</text>
<text x="132" y="196.0" class="t" text-anchor="end">C</text>
<rect x="140" y="189.0" width="14.6" height="14" rx="3" ry="3" fill="hsl(209,60%,50%)" stroke="#ddd" />
<text x="160.6" y="196.0" class="t" text-anchor="start">2.6%</text>
<text x="132" y="226.0" class="t" text-anchor="end">Python</text>
<rect x="140" y="219.0" width="10.2" height="14" rx="3" ry="3" fill="hsl(134,60%,50%)" stroke="#ddd" />
<text x="156.2" y="226.0" class="t" text-anchor="start">1.8%</text>
<text x="132" y="256.0" class="t" text-anchor="end">YAML</text>
<rect x="140" y="249.0" width="3.8" height="14" rx="3" ry="3" fill="hsl(308,60%,50%)" stroke="#ddd" />
<text x="149.8" y="256.0" class="t" text-anchor="start">0.7%</text>
<text x="132" y="286.0" class="t" text-anchor="end">Other</text>
<rect x="140" y="279.0" width="12.6" height="14" rx="3" ry="3" fill="hsl(186,60%,50%)" stroke="#ddd" />
<text x="158.6" y="286.0" class="t" text-anchor="start">2.3%</text>
</svg>