<svg xmlns="http://www.w3.org/2000/svg" width="720" height="120">
<style>.t{font:12px sans-serif;dominant-baseline:middle}</style>
<text x="20" y="20" class="t">Active languages (last 30 days)</text>
<rect x="20.0" y="82" width="39.3" height="18" rx="3" ry="3" />
<text x="39.7" y="110" class="t" text-anchor="middle">Go 31%</text>
<rect x="65.3" y="85" width="39.3" height="15" rx="3" ry="3" />
<text x="85.0" y="110" class="t" text-anchor="middle">Python 26%</text>
<rect x="110.7" y="85" width="39.3" height="15" rx="3" ry="3" />
<text x="130.3" y="110" class="t" text-anchor="middle">TypeScript 26%</text>
<rect x="156.0" y="97" width="39.3" height="3" rx="3" ry="3" />
<text x="175.7" y="110" class="t" text-anchor="middle">Markdown 7%</text>
<rect x="201.3" y="98" width="39.3" height="2" rx="3" ry="3" />
<text x="221.0" y="110" class="t" text-anchor="middle">JSON 4%</text>
<rect x="246.7" y="99" width="39.3" height="1" rx="3" ry="3" />
<text x="266.3" y="110" class="t" text-anchor="middle">YAML 2%</text>
<rect x="292.0" y="100" width="39.3" height="0" rx="3" ry="3" />
<text x="311.7" y="110" class="t" text-anchor="middle">CMake 2%</text>
<rect x="337.3" y="100" width="39.3" height="0" rx="3" ry="3" />
<text x="357.0" y="110" class="t" text-anchor="middle">CSS 1%</text>
<rect x="382.7" y="100" width="39.3" height="0" rx="3" ry="3" />
<text x="402.3" y="110" class="t" text-anchor="middle">Docker 1%</text>
<rect x="428.0" y="100" width="39.3" height="0" rx="3" ry="3" />
<text x="447.7" y="110" class="t" text-anchor="middle">Protocol Buffers 1%</text>
<rect x="473.3" y="100" width="39.3" height="0" rx="3" ry="3" />
<text x="493.0" y="110" class="t" text-anchor="middle">Shell 0%</text>
<rect x="518.7" y="100" width="39.3" height="0" rx="3" ry="3" />
<text x="538.3" y="110" class="t" text-anchor="middle">Makefile 0%</text>
<rect x="564.0" y="100" width="39.3" height="0" rx="3" ry="3" />
<text x="583.7" y="110" class="t" text-anchor="middle">TOML 0%</text>
<rect x="609.3" y="100" width="39.3" height="0" rx="3" ry="3" />
<text x="629.0" y="110" class="t" text-anchor="middle">HTML 0%</text>
<rect x="654.7" y="100" width="39.3" height="0" rx="3" ry="3" />
<text x="674.3" y="110" class="t" text-anchor="middle">JavaScript 0%</text>
</svg>