<svg xmlns="http://www.w3.org/2000/svg" width="720" height="316">
<style>.t{font:12px -apple-system,BlinkMacSystemFont,Segoe UI,Roboto,sans-serif;dominant-baseline:middle;fill:#24292f}.s{font:11px -apple-system,BlinkMacSystemFont,Segoe UI,Roboto,sans-serif;fill:#6b7280}</style>
<rect x="0" y="0" width="720" height="316" fill="#ffffff" />
<text x="140" y="20" class="t">Active languages (last 30 days)</text>
<line x1="140.0" y1="36" x2="140.0" y2="296" stroke="#e5e7eb" />
<text x="140.0" y="32" class="s" text-anchor="middle">0%</text>
<line x1="279.0" y1="36" x2="279.0" y2="296" stroke="#e5e7eb" />
<text x="279.0" y="32" class="s" text-anchor="middle">25%</text>
<line x1="418.0" y1="36" x2="418.0" y2="296" stroke="#e5e7eb" />
<text x="418.0" y="32" class="s" text-anchor="middle">50%</text>
<line x1="557.0" y1="36" x2="557.0" y2="296" stroke="#e5e7eb" />
<text x="557.0" y="32" class="s" text-anchor="middle">75%</text>
<line x1="696.0" y1="36" x2="696.0" y2="296" stroke="#e5e7eb" />
<text x="696.0" y="32" class="s" text-anchor="middle">100%</text>
<text x="132" y="46.0" class="t" text-anchor="end">C++</text>
<rect x="140" y="39.0" width="241.8" height="14" rx="3" ry="3" fill="hsl(115,60%,50%)" stroke="#ddd" />
<text x="377.8" y="46.0" class="t" text-anchor="end" fill="#fff">43%</text>
<text x="132" y="76.0" class="t" text-anchor="end">TypeScript</text>
<rect x="140" y="69.0" width="94.5" height="14" rx="3" ry="3" fill="hsl(80,60%,50%)" stroke="#ddd" />
<text x="230.5" y="76.0" class="t" text-anchor="end" fill="#fff">17%</text>
<text x="132" y="106.0" class="t" text-anchor="end">Markdown</text>
<rect x="140" y="99.0" width="92.8" height="14" rx="3" ry="3" fill="hsl(190,60%,50%)" stroke="#ddd" />
<text x="228.8" y="106.0" class="t" text-anchor="end" fill="#fff">17%</text>
<text x="132" y="136.0" class="t" text-anchor="end">SourcePawn</text>
<rect x="140" y="129.0" width="54.8" height="14" rx="3" ry="3" fill="hsl(174,60%,50%)" stroke="#ddd" />
<text x="190.8" y="136.0" class="t" text-anchor="end" fill="#fff">10%</text>
<text x="132" y="166.0" class="t" text-anchor="end">C</text>
<rect x="140" y="159.0" width="23.5" height="14" rx="3" ry="3" fill="hsl(209,60%,50%)" stroke="#ddd" />
<text x="169.5" y="166.0" class="t" text-anchor="start">4.2%</text>
<text x="132" y="196.0" class="t" text-anchor="end">Python</text>
<rect x="140" y="189.0" width="21.3" height="14" rx="3" ry="3" fill="hsl(134,60%,50%)" stroke="#ddd" />
<text x="167.3" y="196.0" class="t" text-anchor="start">3.8%</text>
<text x="132" y="226.0" class="t" text-anchor="end">Rust</text>
<rect x="140" y="219.0" width="10.5" height="14" rx="3" ry="3" fill="hsl(70,60%,50%)" stroke="#ddd" />
<text x="156.5" y="226.0" class="t" text-anchor="start">1.9%</text>
<text x="132" y="256.0" class="t" text-anchor="end">SVG</text>
<rect x="140" y="249.0" width="6.7" height="14" rx="3" ry="3" fill="hsl(212,60%,50%)" stroke="#ddd" />
<text x="152.7" y="256.0" class="t" text-anchor="start">1.2%</text>
<text x="132" y="286.0" class="t" text-anchor="end">Other</text>
<rect x="140" y="279.0" width="10.2" height="14" rx="3" ry="3" fill="hsl(186,60%,50%)" stroke="#ddd" />
<text x="156.2" y="286.0" class="t" text-anchor="start">1.8%</text>
</svg>