<svg xmlns="http://www.w3.org/2000/svg" width="720" height="256">
<style>.t{font:12px -apple-system,BlinkMacSystemFont,Segoe UI,Roboto,sans-serif;dominant-baseline:middle;fill:#24292f}.s{font:11px -apple-system,BlinkMacSystemFont,Segoe UI,Roboto,sans-serif;fill:#6b7280}</style>
<rect x="0" y="0" width="720" height="256" fill="#ffffff" />
<text x="140" y="20" class="t">Active languages (last 30 days)</text>
<line x1="140.0" y1="36" x2="140.0" y2="236" stroke="#e5e7eb" />
<text x="140.0" y="32" class="s" text-anchor="middle">0%</text>
<line x1="279.0" y1="36" x2="279.0" y2="236" stroke="#e5e7eb" />
<text x="279.0" y="32" class="s" text-anchor="middle">25%</text>
<line x1="418.0" y1="36" x2="418.0" y2="236" stroke="#e5e7eb" />
<text x="418.0" y="32" class="s" text-anchor="middle">50%</text>
<line x1="557.0" y1="36" x2="557.0" y2="236" stroke="#e5e7eb" />
<text x="557.0" y="32" class="s" text-anchor="middle">75%</text>
<line x1="696.0" y1="36" x2="696.0" y2="236" stroke="#e5e7eb" />
<text x="696.0" y="32" class="s" text-anchor="middle">100%</text>
<text x="132" y="46.0" class="t" text-anchor="end">Markdown</text>
<rect x="140" y="39.0" width="260.8" height="14" rx="3" ry="3" fill="hsl(190,60%,50%)" stroke="#ddd" />
<text x="396.8" y="46.0" class="t" text-anchor="end" fill="#fff">47%</text>
<text x="132" y="76.0" class="t" text-anchor="end">Python</text>
<rect x="140" y="69.0" width="155.1" height="14" rx="3" ry="3" fill="hsl(134,60%,50%)" stroke="#ddd" />
<text x="291.1" y="76.0" class="t" text-anchor="end" fill="#fff">28%</text>
<text x="132" y="106.0" class="t" text-anchor="end">Rust</text>
<rect x="140" y="99.0" width="76.5" height="14" rx="3" ry="3" fill="hsl(70,60%,50%)" stroke="#ddd" />
<text x="212.5" y="106.0" class="t" text-anchor="end" fill="#fff">14%</text>
<text x="132" y="136.0" class="t" text-anchor="end">SVG</text>
<rect x="140" y="129.0" width="40.9" height="14" rx="3" ry="3" fill="hsl(212,60%,50%)" stroke="#ddd" />
<text x="176.9" y="136.0" class="t" text-anchor="end" fill="#fff">7%</text>
<text x="132" y="166.0" class="t" text-anchor="end">Protocol Buffers</text>
<rect x="140" y="159.0" width="20.8" height="14" rx="3" ry="3" fill="hsl(157,60%,50%)" stroke="#ddd" />
<text x="166.8" y="166.0" class="t" text-anchor="start">3.7%</text>
<text x="132" y="196.0" class="t" text-anchor="end">TOML</text>
<rect x="140" y="189.0" width="1.8" height="14" rx="3" ry="3" fill="hsl(76,60%,50%)" stroke="#ddd" />
<text x="147.8" y="196.0" class="t" text-anchor="start">0.3%</text>
<text x="132" y="226.0" class="t" text-anchor="end">Ignore List</text>
<rect x="140" y="219.0" width="0.2" height="14" rx="3" ry="3" fill="hsl(78,60%,50%)" stroke="#ddd" />
<text x="146.2" y="226.0" class="t" text-anchor="start">0.0%</text>
</svg>