<svg xmlns="http://www.w3.org/2000/svg" width="720" height="316">
<style>.t{font:12px -apple-system,BlinkMacSystemFont,Segoe UI,Roboto,sans-serif;dominant-baseline:middle;fill:#24292f}.s{font:11px -apple-system,BlinkMacSystemFont,Segoe UI,Roboto,sans-serif;fill:#6b7280}</style>
<rect x="0" y="0" width="720" height="316" fill="#ffffff" />
<text x="140" y="20" class="t">Active languages (last 30 days)</text>
<line x1="140.0" y1="36" x2="140.0" y2="296" stroke="#e5e7eb" />
<text x="140.0" y="32" class="s" text-anchor="middle">0%</text>
<line x1="279.0" y1="36" x2="279.0" y2="296" stroke="#e5e7eb" />
<text x="279.0" y="32" class="s" text-anchor="middle">25%</text>
<line x1="418.0" y1="36" x2="418.0" y2="296" stroke="#e5e7eb" />
<text x="418.0" y="32" class="s" text-anchor="middle">50%</text>
<line x1="557.0" y1="36" x2="557.0" y2="296" stroke="#e5e7eb" />
<text x="557.0" y="32" class="s" text-anchor="middle">75%</text>
<line x1="696.0" y1="36" x2="696.0" y2="296" stroke="#e5e7eb" />
<text x="696.0" y="32" class="s" text-anchor="middle">100%</text>
<text x="132" y="46.0" class="t" text-anchor="end">Python</text>
<rect x="140" y="39.0" width="393.4" height="14" rx="3" ry="3" fill="hsl(134,60%,50%)" stroke="#ddd" />
<text x="529.4" y="46.0" class="t" text-anchor="end" fill="#fff">71%</text>
<text x="132" y="76.0" class="t" text-anchor="end">Markdown</text>
<rect x="140" y="69.0" width="98.1" height="14" rx="3" ry="3" fill="hsl(190,60%,50%)" stroke="#ddd" />
<text x="234.1" y="76.0" class="t" text-anchor="end" fill="#fff">18%</text>
<text x="132" y="106.0" class="t" text-anchor="end">CSV</text>
<rect x="140" y="99.0" width="21.4" height="14" rx="3" ry="3" fill="hsl(329,60%,50%)" stroke="#ddd" />
<text x="167.4" y="106.0" class="t" text-anchor="start">3.8%</text>
<text x="132" y="136.0" class="t" text-anchor="end">Shell</text>
<rect x="140" y="129.0" width="8.4" height="14" rx="3" ry="3" fill="hsl(337,60%,50%)" stroke="#ddd" />
<text x="154.4" y="136.0" class="t" text-anchor="start">1.5%</text>
<text x="132" y="166.0" class="t" text-anchor="end">LaTeX</text>
<rect x="140" y="159.0" width="8.2" height="14" rx="3" ry="3" fill="hsl(41,60%,50%)" stroke="#ddd" />
<text x="154.2" y="166.0" class="t" text-anchor="start">1.5%</text>
<text x="132" y="196.0" class="t" text-anchor="end">BibTeX</text>
<rect x="140" y="189.0" width="7.6" height="14" rx="3" ry="3" fill="hsl(249,60%,50%)" stroke="#ddd" />
<text x="153.6" y="196.0" class="t" text-anchor="start">1.4%</text>
<text x="132" y="226.0" class="t" text-anchor="end">SVG</text>
<rect x="140" y="219.0" width="6.2" height="14" rx="3" ry="3" fill="hsl(212,60%,50%)" stroke="#ddd" />
<text x="152.2" y="226.0" class="t" text-anchor="start">1.1%</text>
<text x="132" y="256.0" class="t" text-anchor="end">TOML</text>
<rect x="140" y="249.0" width="5.7" height="14" rx="3" ry="3" fill="hsl(76,60%,50%)" stroke="#ddd" />
<text x="151.7" y="256.0" class="t" text-anchor="start">1.0%</text>
<text x="132" y="286.0" class="t" text-anchor="end">Other</text>
<rect x="140" y="279.0" width="6.9" height="14" rx="3" ry="3" fill="hsl(186,60%,50%)" stroke="#ddd" />
<text x="152.9" y="286.0" class="t" text-anchor="start">1.2%</text>
</svg>